<svg width="680" height="720" viewBox="0 0 680 720" xmlns="http://www.w3.org/2000/svg" font-family="Arial, sans-serif">
  <defs>
    <marker id="arrow" viewBox="0 0 10 10" refX="8" refY="5" markerWidth="6" markerHeight="6" orient="auto-start-reverse">
      <path d="M2 1L8 5L2 9" fill="none" stroke="#888780" stroke-width="1.5" stroke-linecap="round" stroke-linejoin="round"/>
    </marker>
    <marker id="arrow-purple" viewBox="0 0 10 10" refX="8" refY="5" markerWidth="6" markerHeight="6" orient="auto-start-reverse">
      <path d="M2 1L8 5L2 9" fill="none" stroke="#7F77DD" stroke-width="1.5" stroke-linecap="round" stroke-linejoin="round"/>
    </marker>
    <marker id="arrow-amber" viewBox="0 0 10 10" refX="8" refY="5" markerWidth="6" markerHeight="6" orient="auto-start-reverse">
      <path d="M2 1L8 5L2 9" fill="none" stroke="#BA7517" stroke-width="1.5" stroke-linecap="round" stroke-linejoin="round"/>
    </marker>
    <marker id="arrow-teal" viewBox="0 0 10 10" refX="8" refY="5" markerWidth="6" markerHeight="6" orient="auto-start-reverse">
      <path d="M2 1L8 5L2 9" fill="none" stroke="#0F6E56" stroke-width="1.5" stroke-linecap="round" stroke-linejoin="round"/>
    </marker>
    <marker id="arrow-blue" viewBox="0 0 10 10" refX="8" refY="5" markerWidth="6" markerHeight="6" orient="auto-start-reverse">
      <path d="M2 1L8 5L2 9" fill="none" stroke="#185FA5" stroke-width="1.5" stroke-linecap="round" stroke-linejoin="round"/>
    </marker>
    <marker id="arrow-pink" viewBox="0 0 10 10" refX="8" refY="5" markerWidth="6" markerHeight="6" orient="auto-start-reverse">
      <path d="M2 1L8 5L2 9" fill="none" stroke="#993556" stroke-width="1.5" stroke-linecap="round" stroke-linejoin="round"/>
    </marker>
  </defs>

  <rect width="680" height="720" fill="#ffffff" rx="12"/>

  <!-- USUARIO -->
  <text x="40" y="36" font-size="10" fill="#888780" font-weight="600" letter-spacing="1">USUARIO</text>
  <line x1="40" y1="40" x2="640" y2="40" stroke="#e5e5e5" stroke-width="0.5"/>
  <rect x="260" y="50" width="160" height="44" rx="8" fill="#F1EFE8" stroke="#5F5E5A" stroke-width="0.5"/>
  <text x="340" y="77" text-anchor="middle" font-size="13" fill="#2C2C2A" font-weight="600">Navegador web</text>
  <line x1="300" y1="94" x2="190" y2="134" stroke="#888780" stroke-width="0.8" marker-end="url(#arrow)"/>
  <line x1="380" y1="94" x2="490" y2="134" stroke="#888780" stroke-width="0.8" marker-end="url(#arrow)"/>
  <text x="222" y="118" text-anchor="middle" font-size="11" fill="#888780">vota</text>
  <text x="458" y="118" text-anchor="middle" font-size="11" fill="#888780">ve resultados</text>

  <!-- FRONTEND -->
  <text x="40" y="128" font-size="10" fill="#888780" font-weight="600" letter-spacing="1">SERVICIOS FRONTEND</text>
  <line x1="40" y1="132" x2="640" y2="132" stroke="#e5e5e5" stroke-width="0.5"/>
  <rect x="60" y="142" width="200" height="56" rx="8" fill="#EEEDFE" stroke="#534AB7" stroke-width="0.5"/>
  <text x="160" y="165" text-anchor="middle" font-size="13" fill="#26215C" font-weight="600">Vote Service</text>
  <text x="160" y="185" text-anchor="middle" font-size="11" fill="#534AB7">Java · Puerto 8080</text>
  <rect x="420" y="142" width="200" height="56" rx="8" fill="#E6F1FB" stroke="#185FA5" stroke-width="0.5"/>
  <text x="520" y="165" text-anchor="middle" font-size="13" fill="#042C53" font-weight="600">Result Service</text>
  <text x="520" y="185" text-anchor="middle" font-size="11" fill="#185FA5">Node.js · Puerto 4000</text>
  <path d="M260 182 L300 244" fill="none" stroke="#7F77DD" stroke-width="0.8" marker-end="url(#arrow-purple)"/>
  <text x="256" y="218" text-anchor="middle" font-size="11" fill="#534AB7">publica evento</text>

  <!-- MENSAJERÍA -->
  <text x="40" y="230" font-size="10" fill="#888780" font-weight="600" letter-spacing="1">MENSAJERÍA ASÍNCRONA</text>
  <line x1="40" y1="234" x2="640" y2="234" stroke="#e5e5e5" stroke-width="0.5"/>
  <rect x="220" y="244" width="240" height="56" rx="8" fill="#FAEEDA" stroke="#854F0B" stroke-width="0.5"/>
  <text x="340" y="267" text-anchor="middle" font-size="13" fill="#412402" font-weight="600">Apache Kafka</text>
  <text x="340" y="287" text-anchor="middle" font-size="11" fill="#854F0B">Topic: votes · Bitnami Helm</text>
  <line x1="340" y1="300" x2="340" y2="348" stroke="#BA7517" stroke-width="0.8" marker-end="url(#arrow-amber)"/>
  <text x="360" y="326" font-size="11" fill="#BA7517">consume</text>

  <!-- BACKEND -->
  <text x="40" y="342" font-size="10" fill="#888780" font-weight="600" letter-spacing="1">SERVICIO BACKEND</text>
  <line x1="40" y1="346" x2="640" y2="346" stroke="#e5e5e5" stroke-width="0.5"/>
  <rect x="220" y="356" width="240" height="56" rx="8" fill="#E1F5EE" stroke="#0F6E56" stroke-width="0.5"/>
  <text x="340" y="379" text-anchor="middle" font-size="13" fill="#04342C" font-weight="600">Worker Service</text>
  <text x="340" y="399" text-anchor="middle" font-size="11" fill="#0F6E56">Go · Consumidor Kafka</text>
  <line x1="340" y1="412" x2="340" y2="460" stroke="#0F6E56" stroke-width="0.8" marker-end="url(#arrow-teal)"/>
  <text x="360" y="438" font-size="11" fill="#0F6E56">persiste voto</text>

  <!-- PERSISTENCIA -->
  <text x="40" y="454" font-size="10" fill="#888780" font-weight="600" letter-spacing="1">PERSISTENCIA</text>
  <line x1="40" y1="458" x2="640" y2="458" stroke="#e5e5e5" stroke-width="0.5"/>
  <rect x="220" y="468" width="240" height="56" rx="8" fill="#E1F5EE" stroke="#0F6E56" stroke-width="0.5"/>
  <text x="340" y="491" text-anchor="middle" font-size="13" fill="#04342C" font-weight="600">PostgreSQL</text>
  <text x="340" y="511" text-anchor="middle" font-size="11" fill="#0F6E56">Bitnami Helm · tabla votes</text>
  <path d="M460 496 L600 496 L600 170 L620 170" fill="none" stroke="#185FA5" stroke-width="0.8" stroke-dasharray="4 3" marker-end="url(#arrow-blue)"/>
  <text x="614" y="334" text-anchor="middle" font-size="11" fill="#185FA5">lee</text>

  <!-- CI/CD -->
  <text x="40" y="550" font-size="10" fill="#888780" font-weight="600" letter-spacing="1">CI / CD — GITHUB ACTIONS</text>
  <line x1="40" y1="554" x2="640" y2="554" stroke="#e5e5e5" stroke-width="0.5"/>
  <rect x="60" y="564" width="270" height="56" rx="8" fill="#FBEAF0" stroke="#993556" stroke-width="0.5"/>
  <text x="195" y="587" text-anchor="middle" font-size="13" fill="#4B1528" font-weight="600">deploy-pipeline.yml</text>
  <text x="195" y="607" text-anchor="middle" font-size="11" fill="#993556">Build · test · push · deploy (x3)</text>
  <rect x="350" y="564" width="270" height="56" rx="8" fill="#FAEEDA" stroke="#854F0B" stroke-width="0.5"/>
  <text x="485" y="587" text-anchor="middle" font-size="13" fill="#412402" font-weight="600">infra-pipeline.yml</text>
  <text x="485" y="607" text-anchor="middle" font-size="11" fill="#854F0B">Terraform plan · apply</text>
  <line x1="195" y1="620" x2="260" y2="660" stroke="#993556" stroke-width="0.8" marker-end="url(#arrow-pink)"/>
  <line x1="485" y1="620" x2="440" y2="660" stroke="#BA7517" stroke-width="0.8" marker-end="url(#arrow-amber)"/>

  <!-- INFRAESTRUCTURA -->
  <text x="40" y="654" font-size="10" fill="#888780" font-weight="600" letter-spacing="1">INFRAESTRUCTURA — KUBERNETES + TERRAFORM</text>
  <line x1="40" y1="658" x2="640" y2="658" stroke="#e5e5e5" stroke-width="0.5"/>
  <rect x="60" y="668" width="240" height="44" rx="8" fill="#F1EFE8" stroke="#5F5E5A" stroke-width="0.5"/>
  <text x="180" y="694" text-anchor="middle" font-size="13" fill="#2C2C2A" font-weight="600">Docker Hub / Registry</text>
  <rect x="380" y="668" width="240" height="44" rx="8" fill="#E1F5EE" stroke="#0F6E56" stroke-width="0.5"/>
  <text x="500" y="684" text-anchor="middle" font-size="13" fill="#04342C" font-weight="600">Kubernetes cluster</text>
  <text x="500" y="704" text-anchor="middle" font-size="11" fill="#0F6E56">Terraform · Helm charts</text>
  <line x1="300" y1="690" x2="378" y2="690" stroke="#888780" stroke-width="0.8" marker-end="url(#arrow)"/>
  <text x="339" y="682" text-anchor="middle" font-size="11" fill="#888780">deploy</text>
</svg>
